<?xml version="1.0" encoding="utf-8"?>
<!-- Generator: Adobe Illustrator 15.1.0, SVG Export Plug-In . SVG Version: 6.00 Build 0)  -->
<!DOCTYPE svg PUBLIC "-//W3C//DTD SVG 1.1//EN" "http://www.w3.org/Graphics/SVG/1.1/DTD/svg11.dtd">
<svg version="1.1" xmlns="http://www.w3.org/2000/svg" xmlns:xlink="http://www.w3.org/1999/xlink" x="0px" y="0px"
	 width="513.75px" height="120px" viewBox="0 0 513.75 120" enable-background="new 0 0 513.75 120" xml:space="preserve">
<g id="icon">
	<path fill="#969291" d="M120.758,78.119c-18.713,13.116-27.106,24.68-31.538,28.716c-4.407,4.013-6.256,3.067-6.256,3.067
		L14.974,75.122l14.338-40.967L120.758,78.119z"/>
	<path fill="#CBC6BF" d="M87.928,106.178c6.267-9.393,16.18-21.831,25.289-47.585l-79.37-37.395L14.974,75.122l67.989,34.781
		C82.963,109.903,84.813,110.848,87.928,106.178z"/>
	<path fill="#E4554F" d="M82.963,109.903c0,0-1.85-0.946,0.005-6.243c3.72-10.628,12.584-23.5,20.672-59.064L30.055,10.351
		c-8.042,33.817-16.193,46.269-19.747,56.421c-1.771,5.059,4.666,8.351,4.666,8.351L82.963,109.903z"/>
	<polygon fill="#A51421" points="103.641,44.596 70.081,53.756 30.055,10.351 	"/>
	<polygon fill="#FF7067" points="30.055,10.35 103.641,44.596 51.563,44.853 	"/>
</g>
<g id="type">
	<path fill="#1F1D1C" d="M190.427,53.828l-10.924,14.565h-1.244l-10.685-14.612v24.338h-6.324V44.63h7.282l10.492,14.421
		l10.493-14.421h7.233v33.489h-6.324V53.828z"/>
	<path fill="#1F1D1C" d="M226.042,71.794h-17.535l-2.874,6.325h-6.853l15.044-33.5h6.899l15.043,33.5h-6.898L226.042,71.794z
		 M217.274,51.625l-6.229,14.277h12.457L217.274,51.625z"/>
	<path fill="#1F1D1C" d="M237.672,78.119v-33.5h6.276v33.5H237.672z"/>
	<path fill="#1F1D1C" d="M255.512,44.619v27.655h17.248v5.845h-23.572v-33.5H255.512z"/>
	<path fill="#1F1D1C" d="M284.081,58.428l8.911-13.809h7.618v0.287l-13.367,19.366v13.847h-6.324V64.272l-12.888-19.366v-0.287
		h7.522L284.081,58.428z"/>
	<path fill="#1F1D1C" d="M335.853,78.119V64.608h-16.481v13.511h-6.324V44.63h6.324v14.133h16.481V44.63h6.276v33.489H335.853z"/>
	<path fill="#1F1D1C" d="M372.699,78.119h-25.105c0-11.163,0-22.337,0-33.5h25.105v6.096H353.87v7.713h18.158v5.893H353.87v7.569
		h18.829V78.119z"/>
	<path fill="#1F1D1C" d="M407.656,78.119h-7.521l-9.773-11.211h-6.085v11.211h-6.324v-33.5c5.317,0,10.636,0.048,15.953,0.048
		c7.906,0.048,12.073,5.232,12.073,11.03c0,4.599-2.108,9.246-8.479,10.54l10.156,11.45V78.119z M384.277,50.475v10.732h9.629
		c4.025,0,5.75-2.683,5.75-5.367c0-2.683-1.773-5.365-5.75-5.365H384.277z"/>
	<path fill="#1F1D1C" d="M435.575,71.794H418.04l-2.874,6.325h-6.852l15.044-33.5h6.899l15.042,33.5h-6.897L435.575,71.794z
		 M426.808,51.625l-6.229,14.277h12.456L426.808,51.625z"/>
	<path fill="#1F1D1C" d="M453.52,44.619v27.655h17.247v5.845h-23.571v-33.5H453.52z"/>
	<path fill="#1F1D1C" d="M503.161,61.063c0.144,8.479-5.03,17.056-16.767,17.056c-4.12,0-9.056,0-13.176,0v-33.5
		c4.12,0,9.056,0,13.176,0C497.891,44.619,503.017,52.775,503.161,61.063z M479.495,72.034h6.899c7.618,0,10.634-5.558,10.49-11.019
		c-0.145-5.222-3.208-10.444-10.49-10.444h-6.899V72.034z"/>
</g>
</svg>
